<svg xmlns="http://www.w3.org/2000/svg" viewBox="0 0 3.48505859 3.48505859">
  <path style="fill:#000;stroke:none" d="M 1.5626953,0.09870199 V 0.45320231 A 1.3,1.3 0 0 0 0.90847168,0.72502035 L 0.65732422,0.47387288 0.44441732,0.68677979 0.69556478,0.93792725 A 1.3,1.3 0 0 0 0.42374674,1.5921509 H 0.06924642 V 1.8934245 H 0.42374674 A 1.3,1.3 0 0 0 0.69556478,2.5471313 L 0.44441732,2.7982788 0.65732422,3.0111857 0.90847168,2.7600382 A 1.3,1.3 0 0 0 1.5626953,3.0318563 V 3.3863566 H 1.8634521 V 3.0318563 A 1.3,1.3 0 0 0 2.5176758,2.7600382 L 2.7688232,3.0111857 2.9817301,2.7982788 2.7305827,2.5471313 A 1.3,1.3 0 0 0 3.0024007,1.8934245 H 3.356901 V 1.5921509 H 3.0024007 A 1.3,1.3 0 0 0 2.7305827,0.93792725 L 2.9817301,0.68677979 2.7688232,0.47387288 2.5176758,0.72502035 A 1.3,1.3 0 0 0 1.8634521,0.45320231 V 0.09870199 Z" />
  <circle style="fill:#fff;stroke:none" cx="1.3303682" cy="1.3261912" r="0.30000001" />
</svg>
